<svg width="24" height="24" viewBox="0 0 24 24" fill="none" xmlns="http://www.w3.org/2000/svg">
<g clip-path="url(#clip0)">
<path d="M12 17.0001C11.586 17.0001 11.25 16.6641 11.25 16.2501V0.75C11.25 0.335999 11.586 0 12 0C12.414 0 12.75 0.335999 12.75 0.75V16.2501C12.75 16.6641 12.414 17.0001 12 17.0001Z" fill="white"/>
<path d="M11.9998 17C11.8077 17 11.6158 16.927 11.4697 16.78L7.46973 12.78C7.17676 12.487 7.17676 12.0121 7.46973 11.7189C7.7627 11.426 8.23767 11.426 8.53082 11.7189L12.0007 15.189L15.4707 11.7189C15.7637 11.426 16.2388 11.426 16.5318 11.7189C16.8248 12.0121 16.8248 12.487 16.5318 12.78L12.5317 16.78C12.3837 16.927 12.1918 17 11.9998 17Z" fill="white"/>
<path d="M21.2499 24H2.75006C1.23303 24 0 22.767 0 21.25V16.75C0 16.336 0.335999 16 0.75 16C1.164 16 1.5 16.336 1.5 16.75V21.25C1.5 21.939 2.06104 22.5 2.75006 22.5H21.2499C21.939 22.5 22.5 21.939 22.5 21.25V16.75C22.5 16.336 22.836 16 23.25 16C23.664 16 24 16.336 24 16.75V21.25C24 22.767 22.767 24 21.2499 24Z" fill="white"/>
</g>
<defs>
<clipPath id="clip0">
<rect width="24" height="24" fill="white"/>
</clipPath>
</defs>
</svg>
