<svg width="14" height="28" viewBox="0 0 14 28" fill="none" xmlns="http://www.w3.org/2000/svg">
<path d="M4.31971 14.8692V14.2025H3.65304H1.00065V10.3019H3.79711H4.46378V9.63522V6.38773V6.33076L4.45411 6.27462C4.40838 6.00894 4.18249 4.26809 5.75945 2.80219C7.21703 1.4475 9.08663 1.33317 9.63129 1.33317C9.70035 1.33317 9.74343 1.3349 9.75647 1.33554L9.77293 1.33636H9.7894H13.0007V4.92983H12.9994H12.9949H12.9905H12.9859H12.9814H12.9768H12.9721H12.9675H12.9628H12.9581H12.9533H12.9485H12.9437H12.9389H12.934H12.9291H12.9241H12.9192H12.9142H12.9091H12.9041H12.899H12.8939H12.8887H12.8836H12.8784H12.8731H12.8679H12.8626H12.8573H12.8519H12.8465H12.8411H12.8357H12.8303H12.8248H12.8193H12.8138H12.8082H12.8026H12.797H12.7914H12.7857H12.78H12.7743H12.7686H12.7628H12.7571H12.7513H12.7454H12.7396H12.7337H12.7278H12.7219H12.7159H12.71H12.704H12.698H12.692H12.6859H12.6798H12.6737H12.6676H12.6615H12.6553H12.6491H12.643H12.6367H12.6305H12.6242H12.618H12.6117H12.6054H12.599H12.5927H12.5863H12.5799H12.5735H12.5671H12.5607H12.5542H12.5477H12.5412H12.5347H12.5282H12.5217H12.5151H12.5085H12.502H12.4954H12.4887H12.4821H12.4755H12.4688H12.4621H12.4554H12.4487H12.442H12.4353H12.4285H12.4218H12.415H12.4082H12.4014H12.3946H12.3878H12.381H12.3741H12.3673H12.3604H12.3536H12.3467H12.3398H12.3329H12.3259H12.319H12.3121H12.3051H12.2982H12.2912H12.2842H12.2773H12.2703H12.2633H12.2563H12.2492H12.2422H12.2352H12.2282H12.2211H12.2141H12.207H12.1999H12.1929H12.1858H12.1787H12.1716H12.1645H12.1574H12.1503H12.1432H12.1361H12.129H12.1219H12.1147H12.1076H12.1005H12.0933H12.0862H12.0791H12.0719H12.0648H12.0576H12.0505H12.0433H12.0362H12.029H12.0219H12.0147H12.0075H12.0004H11.9932H11.9861H11.9789H11.9717H11.9646H11.9574H11.9503H11.9431H11.936H11.9288H11.9216H11.9145H11.9073H11.9002H11.8931H11.8859H11.8788H11.8716H11.8645H11.8574H11.8503H11.8431H11.836H11.8289H11.8218H11.8147H11.8076H11.8005H11.7934H11.7863H11.7793H11.7722H11.7651H11.7581H11.751H11.744H11.7369H11.7299H11.7229H11.7159H11.7089H11.7019H11.6949H11.6879H11.6809H11.674H11.667H11.6601H11.6531H11.6462H11.6393H11.6324H11.6255H11.6186H11.6117H11.6049H11.598H11.5912H11.5844H11.5775H11.5707H11.5639H11.5572H11.5504H11.5436H11.5369H11.5302H11.5235H11.5168H11.5101H11.5034H11.4967H11.4901H11.4835H11.4768H11.4702H11.4637H11.4571H11.4505H11.444H11.4375H11.431H11.4245H11.418H11.4116H11.4051H11.3987H11.3923H11.3859H11.3796H11.3732H11.3669H11.3606H11.3543H11.348H11.3418H11.3355H11.3293H11.3231H11.3169H11.3108H11.3047H11.2985H11.2924H11.2864H11.2803H11.2743H11.2683H11.2623H11.2563H11.2504H11.2445H11.2386H11.2327H11.2269H11.2211H11.2153H11.2095H11.2037H11.198H11.1923H11.1866H11.181H11.1753H11.1697H11.1641H11.1586H11.1531H11.1476H11.1421H11.1366H11.1312H11.1258H11.1205H11.1151H11.1098H11.1045H11.0993H11.094H11.0888H11.0837H11.0785H11.0734H11.0683H11.0633H11.0583H11.0533H11.0483H11.0434H11.0385H11.0336H11.0287H11.0239H11.0191H11.0144H11.0097H11.005H11.0003H10.9957H10.9911H10.9866H10.982H10.9776H10.9731H10.9687H10.9643H10.9599H10.9556H10.9513H10.9471H10.9429H10.9387H10.9345H10.9304H10.9263H10.9223H10.9183H10.9143H10.9104H10.9065H10.9026H10.8988H10.895H10.8913H10.8876H10.8839H10.8803H10.8767H10.8731H10.8696H10.8661H10.8627H10.8593H10.856H10.8526H10.8494H10.8461H10.8429H10.8398H10.8366H10.8336H10.8305H10.8275H10.8246H10.8217H10.8188H10.816H10.8132H10.8105H10.8078H10.8051H10.8025H10.7999H10.7974H10.7949H10.7925H10.7901H10.7877H10.7854H10.7832H10.781H10.7788H10.7767H10.7746H10.7726H10.7706H10.7687H10.7668H10.7649H10.7631H10.7614H10.7597H10.758H10.7564H10.7549H10.7534H10.7519H10.7505H10.7491H10.7478H10.7465H10.7453H10.7442H10.743H10.742H10.741H10.74H10.7391H10.7382H10.7374H10.7366C10.1996 4.92983 9.67438 5.05899 9.28399 5.4304C8.88753 5.80758 8.74375 6.32568 8.74375 6.85818V9.6353V10.302H9.41042H12.9721L12.5209 14.2592H9.41025H8.74358V14.9259V26.6666H4.31971V14.8692ZM13.2416 5.16639L13.2416 4.92983C13.2416 4.92983 13.2416 4.92983 13.2416 4.92983V5.16639V5.5965L13.2416 5.16639ZM12.4969 14.4695C12.4969 14.4694 12.4969 14.4693 12.4969 14.4691L12.4969 14.4694L12.4969 14.4695Z" stroke="white" stroke-width="1.33334"/>
</svg>
