<svg width="20" height="20" viewBox="0 0 20 20" fill="none" xmlns="http://www.w3.org/2000/svg">
<path d="M18.9941 2.57158L18.2616 1.83906C16.9205 0.497907 14.7461 0.497907 13.4049 1.83902C13.4049 1.83902 13.4049 1.83902 13.4049 1.83906L4.04471 11.1992C3.09638 12.1476 3.09638 13.6851 4.04471 14.6335L4.53304 15.1218C5.499 16.0266 7.00133 16.0266 7.96728 15.1218L14.8782 8.21086C15.0437 8.05097 15.0483 7.78722 14.8885 7.62167C14.7286 7.45616 14.4648 7.45159 14.2993 7.61143C14.2958 7.61479 14.2924 7.61819 14.289 7.62167L7.37809 14.5326C6.7434 15.1265 5.75693 15.1265 5.12223 14.5326L4.6339 14.0443C4.01096 13.4214 4.01089 12.4115 4.63375 11.7886C4.63379 11.7885 4.63387 11.7885 4.6339 11.7884L13.994 2.42821C15.024 1.44726 16.6425 1.44726 17.6724 2.42821L18.4049 3.16073C19.4203 4.17664 19.4203 5.8232 18.4049 6.83911L7.96725 17.2768C6.55851 18.685 4.27507 18.685 2.86633 17.2768L1.88964 16.301C0.48141 14.8922 0.48141 12.6088 1.88964 11.2001L9.87814 3.21159C10.0436 3.0517 10.0483 2.78795 9.88837 2.6224C9.72849 2.45689 9.46473 2.45228 9.29918 2.61216C9.29571 2.61552 9.29231 2.61892 9.28895 2.6224L1.30049 10.61C-0.433489 12.344 -0.433489 15.1553 1.30045 16.8893C1.30045 16.8893 1.30049 16.8893 1.30049 16.8893L2.27718 17.866C4.01112 19.6 6.82242 19.6 8.5564 17.8661C8.5564 17.866 8.55644 17.866 8.55644 17.866L18.9941 7.4283C20.3353 6.08719 20.3353 3.91273 18.9941 2.57158C18.9942 2.57158 18.9942 2.57158 18.9941 2.57158Z" fill="white"/>
</svg>
