<svg width="32" height="32" viewBox="0 0 32 32" fill="none" xmlns="http://www.w3.org/2000/svg">
<g clip-path="url(#clip0)">
<path d="M28.8996 15.871C28.4718 15.871 28.1248 16.218 28.1248 16.6458V30.4505H19.8101V21.7848C19.8101 21.3569 19.4631 21.0099 19.0352 21.0099H12.9655C12.5377 21.0099 12.1907 21.3569 12.1907 21.7848V28.656C12.1907 29.0839 12.5377 29.4309 12.9655 29.4309C13.3934 29.4309 13.7404 29.0839 13.7404 28.656V22.5596H18.2604V30.4505H3.87588V11.4845L16.0003 1.76802L28.4149 11.7171C28.7489 11.9848 29.2366 11.9309 29.5041 11.597C29.7717 11.2631 29.718 10.7755 29.384 10.5078L16.4848 0.170274C16.2017 -0.0567579 15.7988 -0.0567579 15.5157 0.170274L2.61648 10.5078C2.43297 10.6549 2.32617 10.8772 2.32617 11.1125V31.2252C2.32617 31.653 2.67305 32 3.10102 32H28.8996C29.3276 32 29.6745 31.653 29.6745 31.2252V16.6458C29.6745 16.2179 29.3276 15.871 28.8996 15.871Z" fill="#D1D1D1"/>
</g>
    <defs>
        <clipPath id="clip0">
            <rect width="32" height="32" fill="white"/>
        </clipPath>
    </defs>
</svg>
