<svg width="40" height="40" viewBox="0 0 40 40" fill="none" xmlns="http://www.w3.org/2000/svg">
<circle cx="20" cy="20" r="20" fill="#726F6F"/>
<path d="M22.984 17C22.984 17.608 22.8 18.2 22.432 18.776C22.064 19.336 21.536 19.8 20.848 20.168C20.16 20.536 19.336 20.72 18.376 20.72H17.752L18.232 24.92H19.672L19.84 22.04C20.736 21.992 21.568 21.744 22.336 21.296C23.104 20.832 23.728 20.232 24.208 19.496C24.688 18.744 24.928 17.912 24.928 17C24.928 16.28 24.792 15.616 24.52 15.008C24.264 14.4 23.896 13.872 23.416 13.424C22.952 12.96 22.4 12.6 21.76 12.344C21.136 12.088 20.448 11.96 19.696 11.96C18.752 11.96 17.952 12.08 17.296 12.32C16.656 12.544 16.112 12.872 15.664 13.304C15.216 13.72 14.808 14.208 14.44 14.768L16 15.752C16.368 15.144 16.832 14.664 17.392 14.312C17.968 13.944 18.656 13.76 19.456 13.76C20.176 13.76 20.8 13.888 21.328 14.144C21.856 14.4 22.264 14.768 22.552 15.248C22.84 15.728 22.984 16.312 22.984 17ZM17.68 28.04C17.68 28.392 17.808 28.704 18.064 28.976C18.336 29.232 18.648 29.36 19 29.36C19.368 29.36 19.68 29.232 19.936 28.976C20.192 28.704 20.32 28.392 20.32 28.04C20.32 27.672 20.192 27.36 19.936 27.104C19.68 26.848 19.368 26.72 19 26.72C18.648 26.72 18.336 26.848 18.064 27.104C17.808 27.36 17.68 27.672 17.68 28.04Z" fill="white"/>
</svg>
