<svg width="28" height="28" viewBox="0 0 28 28" fill="none" xmlns="http://www.w3.org/2000/svg">
<path d="M20.1143 0.666748H7.88444C3.90413 0.666748 0.666016 3.90487 0.666016 7.88517V20.1152C0.666016 24.0953 3.90413 27.3334 7.88444 27.3334H20.1145C24.0946 27.3334 27.3327 24.0953 27.3327 20.1152V7.88517C27.3327 3.90487 24.0946 0.666748 20.1143 0.666748V0.666748ZM25.7694 20.1152C25.7694 23.2333 23.2325 25.7701 20.1143 25.7701H7.88444C4.76615 25.7701 2.22933 23.2333 2.22933 20.1152V7.88517C2.22933 4.76689 4.76615 2.23006 7.88444 2.23006H20.1145C23.2325 2.23006 25.7694 4.76689 25.7694 7.88517V20.1152Z" fill="white"/>
<path d="M14.0007 7.33325C10.3246 7.33325 7.33398 10.3238 7.33398 13.9999C7.33398 17.676 10.3246 20.6666 14.0007 20.6666C17.6767 20.6666 20.6673 17.676 20.6673 13.9999C20.6673 10.3238 17.6767 7.33325 14.0007 7.33325ZM14.0007 19.2372C11.1129 19.2372 8.76334 16.8878 8.76334 13.9999C8.76334 11.1122 11.1129 8.76261 14.0007 8.76261C16.8886 8.76261 19.238 11.1122 19.238 13.9999C19.238 16.8878 16.8886 19.2372 14.0007 19.2372Z" fill="white"/>
</svg>
