<svg width="137" height="48" viewBox="0 0 137 48" fill="none" xmlns="http://www.w3.org/2000/svg">
<path fill-rule="evenodd" clip-rule="evenodd" d="M93.8547 44.1942C93.2622 44.1942 92.7421 44.1518 92.2925 44.0658C91.8434 43.9809 91.4265 43.8752 91.041 43.7482V42.3754H91.2187C91.6058 42.6202 92.0354 42.8095 92.5023 42.9418C92.971 43.073 93.4255 43.139 93.8661 43.139C93.9775 43.139 94.1233 43.13 94.3061 43.1127C94.4872 43.0941 94.6345 43.065 94.7445 43.0264C94.8811 42.9829 94.9948 42.9219 95.089 42.8424C95.1829 42.763 95.2296 42.66 95.2296 42.5301C95.2296 42.3856 95.1532 42.2681 95.0004 42.1781C94.8477 42.0867 94.665 42.0217 94.4538 41.9796C94.1911 41.9278 93.9087 41.8789 93.6084 41.8327C93.3087 41.7865 93.0282 41.7293 92.7687 41.6618C92.1687 41.5043 91.7373 41.2928 91.478 41.0266C91.2169 40.7605 91.0874 40.4269 91.0874 40.0259C91.0874 39.486 91.3948 39.0477 92.009 38.7127C92.6217 38.3781 93.3884 38.2112 94.3082 38.2112C94.7697 38.2112 95.2276 38.2454 95.6842 38.3157C96.1401 38.3859 96.5489 38.4798 96.9091 38.599V39.9175H96.7368C96.4491 39.7335 96.0976 39.5787 95.6842 39.4529C95.2687 39.3261 94.8423 39.2623 94.4059 39.2623C94.2369 39.2623 94.0845 39.2716 93.9478 39.2888C93.8125 39.3074 93.6709 39.3432 93.5216 39.3947C93.4011 39.4359 93.296 39.4966 93.2072 39.5789C93.1188 39.6595 93.0741 39.7508 93.0741 39.8517C93.0741 39.9983 93.1451 40.1163 93.2852 40.2021C93.4257 40.2898 93.6974 40.368 94.0984 40.4365C94.3595 40.4817 94.61 40.5239 94.851 40.5648C95.0926 40.6059 95.3501 40.6629 95.6235 40.7357C96.1615 40.8798 96.561 41.0746 96.8235 41.3193C97.0849 41.5627 97.216 41.8859 97.216 42.2867C97.216 42.86 96.9139 43.322 96.3089 43.6714C95.7035 44.0195 94.8853 44.1943 93.8549 44.1943L93.8547 44.1942Z" fill="white"/>
<path fill-rule="evenodd" clip-rule="evenodd" d="M90.8884 44.0897H88.5163L86.3612 41.9718H85.6615V44.0897H83.7266V38.3157H86.8422C87.2717 38.3157 87.6466 38.3356 87.9641 38.3753C88.2837 38.4164 88.5786 38.4997 88.8485 38.6254C89.1274 38.758 89.347 38.9247 89.5087 39.1284C89.672 39.3312 89.7536 39.589 89.7536 39.9015C89.7536 40.3438 89.6204 40.7024 89.3542 40.9778C89.0863 41.253 88.7294 41.4715 88.282 41.6344L90.8885 44.0898L90.8884 44.0897ZM87.7561 40.0842C87.7561 39.9399 87.7192 39.8141 87.6445 39.7095C87.5702 39.605 87.4458 39.5243 87.2738 39.4673C87.1512 39.4289 87.0163 39.405 86.8672 39.3945C86.7182 39.3842 86.5332 39.3786 86.3113 39.3786H85.6615V40.9325H86.2173C86.4887 40.9325 86.7181 40.9207 86.9063 40.8956C87.0959 40.8717 87.2557 40.8186 87.3871 40.7392C87.5115 40.6665 87.6054 40.5806 87.666 40.4787C87.7263 40.3779 87.7561 40.2469 87.7561 40.0842Z" fill="white"/>
<path fill-rule="evenodd" clip-rule="evenodd" d="M75.6038 44.0897L78.2208 38.3157H80.3422L82.9591 44.0897H80.9565L80.4702 42.9103H78.0395L77.5548 44.0897H75.6035H75.6038ZM80.046 41.8634L79.2561 39.9612L78.4641 41.8634H80.046Z" fill="white"/>
<path fill-rule="evenodd" clip-rule="evenodd" d="M71.402 44.0897V39.4171H69.1133V38.3157H75.6359V39.4171H73.3477V44.0897H71.402Z" fill="white"/>
<path fill-rule="evenodd" clip-rule="evenodd" d="M68.6254 44.0897H64.4531V43.0809H65.5665V39.3244H64.4531V38.3157H68.6254V39.3244H67.5122V43.0809H68.6254V44.0897Z" fill="white"/>
<path fill-rule="evenodd" clip-rule="evenodd" d="M60.0293 44.2102C58.9888 44.2102 58.19 44.0222 57.6289 43.6475C57.0699 43.2732 56.7891 42.7249 56.7891 42.0035V38.3158H58.7348V41.9189C58.7348 42.319 58.8364 42.6179 59.0387 42.8137C59.2408 43.0109 59.5713 43.1089 60.0293 43.1089C60.4766 43.1089 60.8052 43.0148 61.0144 42.8257C61.224 42.6375 61.329 42.3345 61.329 41.9187V38.3157H63.2747V41.9997C63.2747 42.7103 63.0013 43.2571 62.4561 43.6385C61.9097 44.0195 61.1016 44.2102 60.0294 44.2102H60.0293Z" fill="white"/>
<path fill-rule="evenodd" clip-rule="evenodd" d="M55.43 43.7602C55.0909 43.8636 54.649 43.964 54.1054 44.0632C53.564 44.1615 53.028 44.2102 52.5006 44.2102C51.2848 44.2102 50.3135 43.9482 49.5908 43.4254C48.8683 42.901 48.5059 42.1583 48.5059 41.1976C48.5059 40.2921 48.8683 39.5666 49.5908 39.0213C50.3135 38.476 51.3022 38.2031 52.5576 38.2031C53.2072 38.2031 53.7329 38.2495 54.1394 38.3408C54.546 38.4322 54.9648 38.5577 55.3979 38.7154V40.0682H55.2207C55.1279 40.014 54.9933 39.9371 54.8174 39.8378C54.6434 39.7374 54.4729 39.6527 54.306 39.5838C54.1106 39.5005 53.887 39.4289 53.6311 39.3695C53.3772 39.3097 53.1076 39.2806 52.8236 39.2806C52.4896 39.2806 52.1859 39.319 51.9127 39.3972C51.6393 39.4741 51.3944 39.5931 51.1793 39.7532C50.9754 39.9096 50.8117 40.1055 50.6932 40.3437C50.574 40.5807 50.5134 40.8572 50.5134 41.1737C50.5134 41.8486 50.7408 42.3463 51.1953 42.6664C51.6495 42.9871 52.2693 43.1472 53.0578 43.1472C53.1271 43.1472 53.2087 43.1457 53.301 43.1432C53.3952 43.1405 53.4768 43.1364 53.5459 43.1312V41.9997H52.0422V40.9182H55.4297V43.7601L55.43 43.7602Z" fill="white"/>
<path fill-rule="evenodd" clip-rule="evenodd" d="M120.974 10.2125C118.226 16.7279 115.826 23.1479 112.603 29.2292C111.761 30.822 112.439 30.4349 114.003 31.3681C115.674 32.3657 115.295 33.0467 116.83 31.8626C119.678 29.6647 122.526 27.4673 125.373 25.2679C125.675 25.0347 126.113 25.1531 125.789 25.7741C122.471 32.1263 119.278 38.5428 116.028 44.9294C115.295 46.3699 116.552 46.1345 117.864 46.9481C119.351 47.8701 119.469 48.5236 120.058 47.2042C125.983 33.9266 130.635 25.9543 136.676 15.4147C137.522 13.9394 136.578 14.1071 135.416 12.8581C134.282 11.6415 134.283 10.2058 133.208 11.7565C128.92 17.9417 125.106 21.1915 120.396 24.6238C119.708 25.1252 119.519 24.4605 119.724 24.0642C121.525 20.574 123.116 16.9733 124.703 13.1744C125.361 11.5989 124.073 11.6481 123.242 10.9609C122.239 10.1323 121.541 8.86898 120.974 10.2125H120.974Z" fill="white"/>
<path fill-rule="evenodd" clip-rule="evenodd" d="M104.493 0.188024C99.6679 10.8254 95.6612 21.8637 90.0166 32.1C89.5049 33.0283 90.5598 33.426 91.5054 34.0033C92.577 34.6571 93.6086 35.3996 93.8839 34.8007C95.5028 31.2808 97.0623 27.7312 98.6523 24.197C99.3516 22.6427 100.13 26.655 105.446 39.5768C105.737 40.2856 106.587 39.8629 107.69 39.4532C108.941 38.9892 110.431 38.4528 110.187 37.995C108.576 34.9766 102.191 22.3162 103.338 21.0714C105.831 18.3658 112.864 14.9904 116.258 13.7254C117.387 13.3049 116.56 12.3953 115.582 11.5804C114.798 10.926 113.969 10.271 113.557 10.4428C108.556 12.5291 106.442 13.7658 103.739 15.6019C102.944 16.1412 102.522 15.4217 102.769 14.8144C104.154 11.4097 107.398 4.88749 108.523 2.54212C108.792 2.08695 107.762 1.48898 106.819 0.915813C105.749 0.266297 104.717 -0.309525 104.494 0.188024H104.493Z" fill="white"/>
<path fill-rule="evenodd" clip-rule="evenodd" d="M82.5062 17.7954C90.305 15.8494 86.0891 14.1204 78.6718 16.192C77.651 16.5179 71.4394 18.0416 75.4314 19.2015C78.5717 20.1477 81.7957 20.8383 84.7835 22.174C93.3783 26.0155 86.9058 32.6287 83.2525 34.1111C78.5844 36.0048 72.5835 36.834 67.9028 35.5893C62.3473 34.112 61.8146 31.6981 63.4307 29.5409C65.1032 27.3087 67.9821 26.1124 71.267 25.8382C75.2448 25.5062 79.1416 28.0034 76.7634 28.1289C70.0898 28.4847 63.7901 32.6531 74.6999 31.6296C79.1028 31.2165 87.085 28.1206 81.8469 25.6986C77.6444 23.7549 71.4804 24.3365 68.8866 20.8755C65.4003 16.224 74.7637 12.6292 79.5048 11.5265C91.0404 8.84321 98.1272 17.8938 86.565 19.425C85.8468 19.5202 79.6728 18.5021 82.5061 17.7954H82.5062Z" fill="white"/>
<path fill-rule="evenodd" clip-rule="evenodd" d="M51.9393 9.64699C46.7748 20.5841 41.6259 31.5288 36.4463 42.4585C36.1625 43.0577 37.0427 43.5868 38.1577 44.2783C39.273 44.9691 40.6235 45.8236 40.8102 45.3763C45.3326 34.6904 48.1709 25.7168 57.0192 17.7045C59.9856 15.0184 64.3178 14.8654 58.7149 21.1299C56.3561 23.7673 54.1224 26.0683 51.4688 28.3003C50.0419 29.5002 51.434 33.1135 52.218 32.5574C58.3107 28.2326 64.917 22.5607 66.2553 18.0897C68.8618 9.38145 60.2896 10.6282 55.8442 13.6417C55.329 13.991 54.5392 14.0721 54.7944 13.4035C55.0816 12.6507 55.7774 11.8002 55.8832 11.6082C56.1392 11.1454 55.1765 10.6468 54.2495 10.1979C53.1996 9.68908 52.1402 9.27497 51.9391 9.64684L51.9393 9.64699Z" fill="white"/>
<path fill-rule="evenodd" clip-rule="evenodd" d="M37.6275 24.6354C35.3814 27.6197 29.4452 33.5695 29.1675 26.7826C29.0046 22.7158 33.1583 18.2617 35.9903 15.5546C41.5256 11.2678 41.8081 15.5079 38.1423 18.1762C36.9479 19.0454 35.0867 20.3235 33.6952 21.2359C33.1428 21.5983 32.7395 24.6666 33.562 24.2473C38.0054 21.982 42.8309 20.154 44.561 15.6663C46.1424 11.5636 44.4013 9.63557 41.3002 9.18735C32.8108 7.96083 19.5247 26.7921 26.4363 33.0363C31.0658 37.2185 38.7564 30.666 40.9701 26.7589C41.2027 26.3481 40.3843 25.9215 39.5385 25.43C38.6925 24.9388 37.8184 24.3816 37.6275 24.6354Z" fill="white"/>
<path fill-rule="evenodd" clip-rule="evenodd" d="M16.6264 4.14811C12.6036 13.7125 8.51035 23.2502 4.56656 32.8463C3.83765 34.6203 2.81952 34.5877 1.14284 34.9272C-0.977418 35.3564 0.422312 36.0807 0.844027 37.9197C1.45826 40.595 0.717378 40.6869 3.13 40.3271C9.78718 39.3345 16.692 38.5549 25.117 39.258C26.9836 39.4137 26.3107 38.7912 25.8028 36.6016C25.407 34.8988 26.1097 33.6261 24.1746 33.6651C20.1871 33.7473 16.0407 33.7138 12.2514 33.8949C11.1824 33.9463 10.7299 33.3381 11.0891 32.4513C14.4623 24.1241 18.1844 15.935 21.7537 7.68619C22.8367 5.18175 22.3789 5.75285 20.1567 4.13393C18.1134 2.64689 17.7772 1.4093 16.6265 4.14811H16.6264Z" fill="white"/>
</svg>
