<svg width="28" height="16" viewBox="0 0 28 16" fill="none" xmlns="http://www.w3.org/2000/svg">
<path d="M14.1603 16C18.018 16 16.6425 13.6555 16.9403 12.9813C16.9358 12.4779 16.9314 11.9936 16.9492 11.6992C17.1936 11.7653 17.7703 12.0459 18.9614 13.1573C20.8002 14.9387 21.2702 16 22.7558 16H25.4902C26.3568 16 26.808 15.6555 27.0335 15.3664C27.2513 15.0869 27.4646 14.5963 27.2313 13.8325C26.6213 11.9936 23.0635 8.81813 22.8424 8.4832C22.8758 8.42133 22.9291 8.3392 22.9569 8.29653H22.9547C23.6569 7.40587 26.3368 3.55093 26.7313 2.00853C26.7324 2.0064 26.7335 2.0032 26.7335 2C26.9468 1.296 26.7513 0.839467 26.5491 0.581333C26.2446 0.1952 25.7602 0 25.1057 0H22.3713C21.4558 0 20.7614 0.442667 20.4102 1.25013C19.8225 2.6848 18.1714 5.6352 16.9336 6.67947C16.8958 5.2 16.9214 4.0704 16.9414 3.23093C16.9814 1.5936 17.1103 0 15.3403 0H11.0426C9.93369 0 8.87259 1.16267 10.0215 2.54293C11.0259 3.75253 10.3826 4.42667 10.5992 7.7824C9.7548 6.91307 8.2526 4.56533 7.19039 1.5648C6.89261 0.753067 6.44151 0.00106659 5.17152 0.00106659H2.43711C1.32823 0.00106659 0.666016 0.581333 0.666016 1.55307C0.666016 3.73547 5.69818 16 14.1603 16ZM5.17152 1.60107C5.41263 1.60107 5.43707 1.60107 5.61596 2.08853C6.70373 5.16373 9.1437 9.71413 10.9259 9.71413C12.2648 9.71413 12.2648 8.3968 12.2648 7.9008L12.2637 3.952C12.1903 2.64533 11.6948 1.99467 11.3692 1.6L15.267 1.60427C15.2692 1.6224 15.2447 5.97227 15.2781 7.02613C15.2781 8.52267 16.5158 9.38027 18.448 7.50293C20.4869 5.29387 21.8969 1.99147 21.9536 1.85707C22.0369 1.66507 22.1091 1.6 22.3713 1.6H25.1057H25.1169C25.1157 1.6032 25.1157 1.6064 25.1146 1.6096C24.8646 2.7296 22.3969 6.29867 21.5713 7.40693C21.558 7.424 21.5458 7.44213 21.5336 7.46027C21.1702 8.02987 20.8747 8.6592 21.5836 9.54453H21.5847C21.6491 9.6192 21.8169 9.79413 22.0613 10.0373C22.8213 10.7904 25.428 13.3653 25.6591 14.3893C25.5057 14.4128 25.3391 14.3957 22.7558 14.4011C22.2058 14.4011 21.7758 13.6117 20.1347 12.0224C18.6592 10.6443 17.7014 10.0811 16.8292 10.0811C15.1359 10.0811 15.2592 11.4005 15.2747 12.9963C15.2803 14.7264 15.2692 14.1792 15.2814 14.288C15.1825 14.3253 14.8992 14.4 14.1603 14.4C7.11039 14.4 2.51933 3.6576 2.34266 1.60427C2.40377 1.59893 3.24488 1.60213 5.17152 1.60107Z" fill="white"/>
</svg>
